<svg width="62" height="62" viewBox="0 0 62 62" fill="none" xmlns="http://www.w3.org/2000/svg">
<g clip-path="url(#clip0)">
<path d="M61.0934 1.714L60.2709 0.891972C59.0442 -0.279788 57.1129 -0.28003 55.886 0.891488L52.7455 4.03209C49.6938 7.0838 46.0305 8.29528 41.79 9.69858C35.8742 11.6553 29.1693 13.873 21.529 21.5133C13.8887 29.1532 11.6707 35.8585 9.7138 41.7742C8.3111 46.0153 7.09902 49.6781 4.0473 52.7303L0.906826 55.8707C-0.302112 57.0823 -0.302112 59.0439 0.906826 60.2555L1.7303 61.0785C2.3117 61.6598 3.10018 61.9864 3.92233 61.9863C4.74447 61.9861 5.53295 61.6594 6.11411 61.078L9.25459 57.9374C12.3063 54.8857 15.9696 53.6742 20.2101 52.2709C26.1258 50.3142 32.8308 48.0965 40.4711 40.4562C48.1115 32.8163 50.3295 26.111 52.2864 20.1953C53.6891 15.9542 54.9012 12.2914 57.9529 9.23925L61.0935 6.09877C62.3023 4.88729 62.3023 2.9256 61.0934 1.714ZM4.6528 59.6168C4.24458 60.0075 3.60105 60.0077 3.19258 59.6173L3.19149 59.6162L2.36801 58.7937C1.96536 58.3896 1.96536 57.736 2.36801 57.3319L4.7779 54.922L5.29463 55.4388L5.29572 55.4403L5.29717 55.4413L7.06269 57.2068L4.6528 59.6168ZM8.54701 50.1373C9.83865 47.6741 10.8865 45.0907 11.6755 42.4237C13.5605 36.726 15.697 30.2678 22.9902 22.9746C30.2834 15.6814 36.7411 13.5449 42.4388 11.6604C45.1037 10.8719 47.6853 9.82525 50.1469 8.5353C47.8672 10.2165 45.3161 11.7899 42.6729 13.4188C37.4101 16.6612 31.446 20.3366 25.8985 25.8839C20.3522 31.4303 16.6778 37.394 13.4353 42.6562C11.8049 45.3022 10.2303 47.8559 8.54701 50.1373ZM49.4858 13.9603C48.5895 15.3407 47.7052 16.7691 46.8057 18.2294C43.6228 23.3948 40.015 29.249 34.6402 34.6244C29.2644 40.0001 23.4092 43.6079 18.2433 46.7914C16.7835 47.6908 15.3556 48.5747 13.9755 49.4707L49.4858 13.9603ZM12.5144 48.0093C13.4107 46.6289 14.295 45.2005 15.1945 43.7402C18.3774 38.5748 21.9852 32.7206 27.36 27.3453C32.7358 21.9695 38.591 18.3618 43.7569 15.1783C45.2167 14.2789 46.6446 13.395 48.0247 12.499L12.5144 48.0093ZM50.3246 19.5459C48.4394 25.2437 46.3031 31.7018 39.0099 38.995C31.7166 46.2882 25.259 48.4247 19.5613 50.3092C16.8963 51.0977 14.3147 52.1444 11.8531 53.4343C14.1328 51.753 16.6839 50.1798 19.3272 48.5507C24.5899 45.3083 30.5541 41.6329 36.1015 36.0856C41.6479 30.5392 45.3223 24.5756 48.5648 19.3133C50.1954 16.6674 51.77 14.1138 53.4533 11.8324C52.1614 14.2955 51.1135 16.8789 50.3246 19.5459ZM59.6321 4.63758L57.2222 7.04747L56.7054 6.53074L56.7044 6.52916L56.7029 6.52807L54.9374 4.76256L57.3473 2.35268C57.7562 1.96225 58.3999 1.96249 58.8086 2.35316L59.6321 3.17567C60.0347 3.5799 60.0347 4.2336 59.6321 4.63758Z" fill="#0376C4"/>
</g>
<defs>
<clipPath id="clip0">
<rect width="62" height="62" fill="white"/>
</clipPath>
</defs>
</svg>
