<svg width="23" height="23" viewBox="0 0 23 23" fill="none" xmlns="http://www.w3.org/2000/svg">
<path d="M22.8538 11.0526C22.6483 10.7716 17.7526 4.17033 11.4999 4.17033C5.24715 4.17033 0.3512 10.7716 0.145951 11.0524C-0.0486505 11.319 -0.0486505 11.6807 0.145951 11.9474C0.3512 12.2284 5.24715 18.8297 11.4999 18.8297C17.7526 18.8297 22.6483 12.2284 22.8538 11.9476C23.0487 11.681 23.0487 11.319 22.8538 11.0526ZM11.4999 17.3132C6.89408 17.3132 2.90497 12.9318 1.7241 11.4995C2.90344 10.0659 6.8842 5.6868 11.4999 5.6868C16.1055 5.6868 20.0943 10.0674 21.2757 11.5005C20.0963 12.9341 16.1156 17.3132 11.4999 17.3132Z" fill="#0376C4"/>
<path d="M11.4999 6.95055C8.99138 6.95055 6.95044 8.99149 6.95044 11.5C6.95044 14.0085 8.99138 16.0495 11.4999 16.0495C14.0084 16.0495 16.0494 14.0085 16.0494 11.5C16.0494 8.99149 14.0084 6.95055 11.4999 6.95055ZM11.4999 14.533C9.82747 14.533 8.46696 13.1724 8.46696 11.5C8.46696 9.82762 9.82751 8.46707 11.4999 8.46707C13.1723 8.46707 14.5329 9.82762 14.5329 11.5C14.5329 13.1724 13.1724 14.533 11.4999 14.533Z" fill="#0376C4"/>
</svg>
